<?xml version="1.0" standalone="no"?>
<svg xmlns:xlink="http://www.w3.org/1999/xlink" id="wave" style="transform:rotate(180deg); transition: 0.3s" viewBox="0 0 1440 490" version="1.1" xmlns="http://www.w3.org/2000/svg"><defs><linearGradient id="sw-gradient-0" x1="0" x2="0" y1="1" y2="0"><stop stop-color="rgba(240.716, 248.597, 236.579, 1)" offset="0%"/><stop stop-color="rgba(89.25, 255, 0, 1)" offset="100%"/></linearGradient></defs><path style="transform:translate(0, 0px); opacity:1" fill="url(#sw-gradient-0)" d="M0,294L60,261.3C120,229,240,163,360,179.7C480,196,600,294,720,326.7C840,359,960,327,1080,318.5C1200,310,1320,327,1440,326.7C1560,327,1680,310,1800,269.5C1920,229,2040,163,2160,147C2280,131,2400,163,2520,147C2640,131,2760,65,2880,73.5C3000,82,3120,163,3240,171.5C3360,180,3480,114,3600,73.5C3720,33,3840,16,3960,49C4080,82,4200,163,4320,196C4440,229,4560,212,4680,212.3C4800,212,4920,229,5040,204.2C5160,180,5280,114,5400,114.3C5520,114,5640,180,5760,228.7C5880,278,6000,310,6120,269.5C6240,229,6360,114,6480,122.5C6600,131,6720,261,6840,310.3C6960,359,7080,327,7200,318.5C7320,310,7440,327,7560,302.2C7680,278,7800,212,7920,155.2C8040,98,8160,49,8280,73.5C8400,98,8520,196,8580,245L8640,294L8640,490L8580,490C8520,490,8400,490,8280,490C8160,490,8040,490,7920,490C7800,490,7680,490,7560,490C7440,490,7320,490,7200,490C7080,490,6960,490,6840,490C6720,490,6600,490,6480,490C6360,490,6240,490,6120,490C6000,490,5880,490,5760,490C5640,490,5520,490,5400,490C5280,490,5160,490,5040,490C4920,490,4800,490,4680,490C4560,490,4440,490,4320,490C4200,490,4080,490,3960,490C3840,490,3720,490,3600,490C3480,490,3360,490,3240,490C3120,490,3000,490,2880,490C2760,490,2640,490,2520,490C2400,490,2280,490,2160,490C2040,490,1920,490,1800,490C1680,490,1560,490,1440,490C1320,490,1200,490,1080,490C960,490,840,490,720,490C600,490,480,490,360,490C240,490,120,490,60,490L0,490Z"/><defs><linearGradient id="sw-gradient-1" x1="0" x2="0" y1="1" y2="0"><stop stop-color="rgba(255, 255, 255, 1)" offset="0%"/><stop stop-color="rgba(239.501, 255, 231.156, 1)" offset="100%"/></linearGradient></defs><path style="transform:translate(0, 50px); opacity:0.9" fill="url(#sw-gradient-1)" d="M0,98L60,89.8C120,82,240,65,360,81.7C480,98,600,147,720,147C840,147,960,98,1080,73.5C1200,49,1320,49,1440,65.3C1560,82,1680,114,1800,138.8C1920,163,2040,180,2160,187.8C2280,196,2400,196,2520,236.8C2640,278,2760,359,2880,326.7C3000,294,3120,147,3240,98C3360,49,3480,98,3600,171.5C3720,245,3840,343,3960,392C4080,441,4200,441,4320,400.2C4440,359,4560,278,4680,228.7C4800,180,4920,163,5040,204.2C5160,245,5280,343,5400,392C5520,441,5640,441,5760,383.8C5880,327,6000,212,6120,138.8C6240,65,6360,33,6480,24.5C6600,16,6720,33,6840,89.8C6960,147,7080,245,7200,245C7320,245,7440,147,7560,147C7680,147,7800,245,7920,236.8C8040,229,8160,114,8280,98C8400,82,8520,163,8580,204.2L8640,245L8640,490L8580,490C8520,490,8400,490,8280,490C8160,490,8040,490,7920,490C7800,490,7680,490,7560,490C7440,490,7320,490,7200,490C7080,490,6960,490,6840,490C6720,490,6600,490,6480,490C6360,490,6240,490,6120,490C6000,490,5880,490,5760,490C5640,490,5520,490,5400,490C5280,490,5160,490,5040,490C4920,490,4800,490,4680,490C4560,490,4440,490,4320,490C4200,490,4080,490,3960,490C3840,490,3720,490,3600,490C3480,490,3360,490,3240,490C3120,490,3000,490,2880,490C2760,490,2640,490,2520,490C2400,490,2280,490,2160,490C2040,490,1920,490,1800,490C1680,490,1560,490,1440,490C1320,490,1200,490,1080,490C960,490,840,490,720,490C600,490,480,490,360,490C240,490,120,490,60,490L0,490Z"/><defs><linearGradient id="sw-gradient-2" x1="0" x2="0" y1="1" y2="0"><stop stop-color="rgba(253.15, 253.15, 253.15, 1)" offset="0%"/><stop stop-color="rgba(199.263, 255, 169.25, 1)" offset="100%"/></linearGradient></defs><path style="transform:translate(0, 100px); opacity:0.8" fill="url(#sw-gradient-2)" d="M0,196L60,204.2C120,212,240,229,360,245C480,261,600,278,720,245C840,212,960,131,1080,114.3C1200,98,1320,147,1440,163.3C1560,180,1680,163,1800,196C1920,229,2040,310,2160,294C2280,278,2400,163,2520,114.3C2640,65,2760,82,2880,114.3C3000,147,3120,196,3240,212.3C3360,229,3480,212,3600,245C3720,278,3840,359,3960,334.8C4080,310,4200,180,4320,130.7C4440,82,4560,114,4680,114.3C4800,114,4920,82,5040,98C5160,114,5280,180,5400,187.8C5520,196,5640,147,5760,114.3C5880,82,6000,65,6120,122.5C6240,180,6360,310,6480,302.2C6600,294,6720,147,6840,98C6960,49,7080,98,7200,171.5C7320,245,7440,343,7560,351.2C7680,359,7800,278,7920,212.3C8040,147,8160,98,8280,114.3C8400,131,8520,212,8580,253.2L8640,294L8640,490L8580,490C8520,490,8400,490,8280,490C8160,490,8040,490,7920,490C7800,490,7680,490,7560,490C7440,490,7320,490,7200,490C7080,490,6960,490,6840,490C6720,490,6600,490,6480,490C6360,490,6240,490,6120,490C6000,490,5880,490,5760,490C5640,490,5520,490,5400,490C5280,490,5160,490,5040,490C4920,490,4800,490,4680,490C4560,490,4440,490,4320,490C4200,490,4080,490,3960,490C3840,490,3720,490,3600,490C3480,490,3360,490,3240,490C3120,490,3000,490,2880,490C2760,490,2640,490,2520,490C2400,490,2280,490,2160,490C2040,490,1920,490,1800,490C1680,490,1560,490,1440,490C1320,490,1200,490,1080,490C960,490,840,490,720,490C600,490,480,490,360,490C240,490,120,490,60,490L0,490Z"/></svg>